# AST/ASF file generated using VICON BodyLanguage
# -----------------------------------------------
:version 1.10
:name VICON
:units
  mass 1.0
  length 0.45
  angle deg
:documentation
   .ast/.asf automatically generated from VICON data using
   VICON BodyBuilder and BodyLanguage model FoxedUp or BRILLIANT.MOD
:root
   order TX TY TZ RX RY RZ
   axis XYZ
   position 0 0 0  
   orientation 0 0 0 
:bonedata
  begin
     id 1 
     name lhipjoint
     direction 0.714689 -0.624256 0.315473 
     length 2.45343 
     axis 0 0 0  XYZ
  end
  begin
     id 2 
     name lfemur
     direction 0.34202 -0.939693 0  
     length 6.59069  
     axis 0 0 20  XYZ
    dof rx ry rz
    limits (-160.0 20.0)
           (-70.0 70.0)
           (-60.0 70.0)
  end
  begin
     id 3 
     name ltibia
     direction 0.34202 -0.939693 0   
     length 6.73476   
     axis 0 0 20   XYZ
    dof rx
    limits (-10.0 170.0)
  end
  begin
     id 4 
     name lfoot
     direction 0.0718085 -0.197292 0.977711   
     length 1.52607   
     axis -90 7.62852e-016 20   XYZ
    dof rx rz
    limits (-45.0 90.0)
           (-70.0 20.0)
  end
  begin
     id 5 
     name ltoes
     direction 1.53553e-011 -4.22024e-011 1   
     length 0.777832   
     axis -90 7.62852e-016 20   XYZ
    dof rx
    limits (-90.0 20.0)
  end
  begin
     id 6 
     name rhipjoint
     direction -0.727419 -0.612432 0.309497   
     length 2.50079  
     axis 0 0 0  XYZ 
  end
  begin
     id 7 
     name rfemur
     direction -0.34202 -0.939693 0   
     length 6.51665   
     axis 0 0 -20   XYZ
    dof rx ry rz
    limits (-160.0 20.0)
           (-70.0 70.0)
           (-70.0 60.0)
  end
  begin
     id 8 
     name rtibia
     direction -0.34202 -0.939693 0   
     length 6.48919   
     axis 0 0 -20   XYZ
    dof rx
    limits (-10.0 170.0)
 end
 begin
     id 9 
     name rfoot
     direction -0.112205 -0.308282 0.944655   
     length 1.68717  
     axis -90 -7.62852e-016 -20   XYZ
    dof rx rz
    limits (-45.0 90.0)
           (-20.0 70.0)
  end
  begin
     id 10 
     name rtoes
     direction -1.53583e-011 -4.21993e-011 1   
     length 0.846859   
     axis -90 -7.62852e-016 -20   XYZ
    dof rx
    limits (-90.0 20.0)
  end
  begin
     id 11 
     name lowerback
     direction -0.00119603 0.996364 -0.0851956   
     length 1.67242   
     axis 0 0 0   XYZ
    dof rx ry rz
    limits (-20.0 45.0)
           (-30.0 30.0)
           (-30.0 30.0)
  end
  begin
     id 12 
     name upperback
     direction -0.00531001 0.998318 0.0577248   
     length 1.64819   
     axis 0 0 0   XYZ
    dof rx ry rz
    limits (-20.0 45.0)
           (-30.0 30.0)
           (-30.0 30.0)
  end
  begin
     id 13 
     name thorax
     direction -0.00653676 0.995132 0.0983291   
     length 1.67429   
     axis 0 0 0   XYZ
    dof rx ry rz
    limits (-20.0 45.0)
           (-30.0 30.0)
           (-30.0 30.0)
  end
  begin
     id 14 
     name lowerneck
     direction 0.0141424 0.999886 0.00525412   
     length 1.59623   
     axis 0 0 0   XYZ
    dof rx ry rz
    limits (-20.0 45.0)
           (-30.0 30.0)
           (-30.0 30.0)
  end
  begin
     id 15 
     name upperneck
     direction -0.0640064 0.987178 -0.146232   
     length 1.59576   
     axis 0 0 0   XYZ
    dof rx ry rz
    limits (-20.0 45.0)
           (-30.0 30.0)
           (-30.0 30.0)
  end
  begin
     id 16
     name head
     direction -0.0222942 0.998496 -0.0500859  
     length 1.60959  
     axis 0 0 0   XYZ
    dof rx ry rz
    limits (-20.0 45.0)
           (-30.0 30.0)
           (-30.0 30.0)
  end
  begin
     id 17 
     name lclavicle
     direction 0.908549 0.392612 0.142806  
     length 2.80649  
     axis 0 0 0   XYZ
    dof ry rz
    limits (-20.0 10.0)
           (0.0 20.0)
  end
  begin
     id 18 
     name lhumerus
     direction 1 -4.48968e-011 1.08832e-028   
     length 4.2884   
     axis -180 -30 -90   XYZ
    dof rx ry rz
    limits (-60.0 90.0)
           (-90.0 90.0)
           (-90.0 90.0)
  end
  begin
     id 19
     name lradius
     direction 1 -4.48952e-011 -3.02642e-028   
     length 3.06552   
     axis -180 -30 -90   XYZ
    dof rx
    limits (-10.0 170.0)
  end
  begin
     id 20
     name lwrist
     direction 1 -4.49014e-011 1.58672e-027   
     length 1.53276   
     axis -1.65735e-015 90 90   XYZ
    dof ry
    limits (-180.0 0.0)
 end
  begin
     id 21 
     name lhand
     direction 1 -4.48928e-011 3.17344e-027   
     length 0.753045   
     axis -2.02492e-015 90 90   XYZ
    dof rx rz
    limits (-90.0 90.0)
           (-45.0 45.0)
  end
  begin
     id 22 
     name lfingers
     direction 1 -4.48958e-011 6.34687e-027   
     length 0.607124   
     axis -4.04985e-015 90 90   XYZ
    dof rx
    limits (0.0 90.0)
  end
  begin
     id 23
     name lthumb
     direction 0.707107 -6.34905e-011 0.707107   
     length 0.871712   
     axis -90 45 2.85299e-015   XYZ
    dof rx rz
    limits (-45.0 45.0)
           (-45.0 45.0)
  end
  begin
     id 24 
     name rclavicle
     direction -0.885098 0.45949 0.0739604   
     length 2.9478  
     axis 0 0 0   XYZ 
    dof ry rz
    limits (-10.0 20.0)
           (-20.0 0.0)
  end
  begin
     id 25 
     name rhumerus
     direction -1 -4.4898e-011 -2.61739e-027  
     length 4.52172   
     axis -180 30 90   XYZ
    dof rx ry rz
    limits (-90.0 60.0)
           (-90.0 90.0)
           (-90.0 90.0)
  end
  begin
     id 26 
     name rradius
     direction -1 -4.48945e-011 9.02552e-028   
     length 2.8914   
     axis -180 30 90   XYZ
    dof rx
    limits (-10.0 170.0)
  end
  begin
     id 27 
     name rwrist
     direction -1 -4.49018e-011 1.58672e-027   
     length 1.4457   
     axis -1.65735e-015 -90 -90   XYZ
    dof ry
    limits (-180.0 0.0)
  end
  begin
     id 28
     name rhand
     direction -1 -4.48825e-011 3.17344e-027   
     length 0.680541   
     axis -2.02492e-015 -90 -90   XYZ
    dof rx rz
    limits (-90.0 90.0)
           (-45.0 45.0)
  end
  begin
     id 29
     name rfingers
     direction -1 -4.49067e-011 6.34687e-027   
     length 0.54867   
     axis -4.04985e-015 -90 -90   XYZ
    dof rx
    limits (0.0 90.0)
  end
  begin
     id 30
     name rthumb
     direction -0.707107 -6.34833e-011 0.707107   
     length 0.787783   
     axis -90 -45 -2.85299e-015   XYZ
    dof rx rz
    limits (-45.0 45.0)
           (-45.0 45.0)
  end
:hierarchy
  begin
    root lhipjoint rhipjoint lowerback
    lhipjoint lfemur
    lfemur ltibia
    ltibia lfoot
    lfoot ltoes
    rhipjoint rfemur
    rfemur rtibia
    rtibia rfoot
    rfoot rtoes
    lowerback upperback
    upperback thorax
    thorax lowerneck lclavicle rclavicle
    lowerneck upperneck
    upperneck head
    lclavicle lhumerus
    lhumerus lradius
    lradius lwrist
    lwrist lhand lthumb
    lhand lfingers
    rclavicle rhumerus
    rhumerus rradius
    rradius rwrist
    rwrist rhand rthumb
    rhand rfingers
  end

#!OML:ASF E:\emotionWalksFemale\Project 1\Capture day 1\Session 1\Female1.ASF
:FULLY-SPECIFIED
:DEGREES
139
root 9.12807 15.121 42.5132 180.85 -5.14603 180.049
lowerback 8.77868 -0.588518 -2.46076
upperback -5.59433 -1.31385 -0.367882
thorax -10.9156 -0.525163 1.23606
lowerneck -3.62997 -3.83376 -5.73674
upperneck 4.605 -5.5681 9.89513
head 2.39493 -2.69773 3.71938
rclavicle -1.05356e-014 1.35174e-014
rhumerus -43.8298 25.8492 -104.108
rradius 36.8284
rwrist 15.8622
rhand -2.52436 -49.6558
rfingers 7.12502
rthumb 23.1704 -78.2822
lclavicle -1.05356e-014 1.35174e-014
lhumerus -45.8067 -7.39072 91.5744
lradius 36.5708
lwrist -18.821
lhand -3.79188 -35.4166
lfingers 7.12502
lthumb 21.9538 -6.64234
rfemur -9.92406 9.73421 23.6828
rtibia 30.3533
rfoot -23.4944 -25.6187
rtoes 3.1539
lfemur -12.7663 -17.6651 -21.5774
ltibia 30.9283
lfoot -22.9918 15.8766
ltoes -37.1734
140
root 9.13228 15.1165 42.5193 180.712 -5.50789 179.955
lowerback 9.09304 -0.74219 -2.70457
upperback -5.59607 -1.5595 -0.345954
thorax -11.0923 -0.61886 1.44751
lowerneck -3.64237 -3.83099 -5.70297
upperneck 4.70864 -5.57144 9.8435
head 2.42549 -2.69847 3.69705
rclavicle 1.57537e-014 1.63003e-014
rhumerus -43.7621 25.7697 -104.007
rradius 36.8803
rwrist 15.7804
rhand -2.46339 -49.1701
rfingers 7.12502
rthumb 23.2289 -77.7892
lclavicle 1.57537e-014 1.63003e-014
lhumerus -45.8086 -7.37731 91.6618
lradius 36.5025
lwrist -19.3244
lhand -3.6161 -35.3454
lfingers 7.12502
lthumb 22.1226 -6.591
rfemur -9.78039 9.49803 23.6173
rtibia 30.4138
rfoot -23.7433 -25.6416
rtoes 3.23946
lfemur -12.6583 -17.7684 -21.6926
ltibia 30.8864
lfoot -22.8476 15.6355
ltoes -37.2861
141
root 9.1344 15.1171 42.5192 180.813 -5.5871 179.789
lowerback 9.01494 -0.788691 -2.98692
upperback -5.6432 -1.66755 -0.359859
thorax -11.0883 -0.652229 1.61001
lowerneck -3.55044 -3.83763 -5.68082
upperneck 4.70824 -5.58387 9.81107
head 2.40958 -2.70783 3.68485
rclavicle -1.38652e-014 -6.36111e-015
rhumerus -43.7475 25.5046 -103.862
rradius 37.0089
rwrist 15.8556
rhand -1.6308 -50.1949
rfingers 7.12502
rthumb 24.0275 -78.711
lclavicle -1.38652e-014 -6.36111e-015
lhumerus -45.8294 -7.29723 91.6864
lradius 36.3104
lwrist -20.1055
lhand -3.95775 -35.8649
lfingers 7.12502
lthumb 21.7945 -7.07206
rfemur -9.90236 9.35517 23.4084
rtibia 30.4948
rfoot -23.9254 -25.4827
rtoes 3.59592
lfemur -12.7343 -17.8053 -21.8445
ltibia 30.8105
lfoot -22.7058 15.6806
ltoes -37.3603
142
root 9.13428 15.1173 42.5163 180.757 -5.57334 179.712
lowerback 9.07157 -0.786815 -3.15842
upperback -5.65696 -1.6926 -0.35975
thorax -11.1333 -0.650532 1.71268
lowerneck -3.47515 -3.86723 -5.73876
upperneck 4.61297 -5.60271 9.49053
head 2.62344 -2.74786 3.99934
rclavicle 5.36719e-015 -7.95139e-016
rhumerus -43.7938 25.2012 -103.725
rradius 37.1594
rwrist 15.7034
rhand -0.643148 -51.8976
rfingers 7.12502
rthumb 24.9742 -80.2854
lclavicle 5.36719e-015 -7.95139e-016
lhumerus -45.636 -6.83694 91.5304
lradius 35.8074
lwrist -21.1505
lhand -4.22426 -36.3186
lfingers 7.12502
lthumb 21.5386 -7.4962
rfemur -9.85352 9.37477 23.3398
rtibia 30.5834
rfoot -23.9144 -25.5066
rtoes 4.36254
lfemur -12.5987 -17.8548 -21.9608
ltibia 30.7088
lfoot -22.6731 15.7769
ltoes -37.4823
143
root 9.13376 15.1182 42.5128 180.709 -5.82227 179.572
lowerback 9.15761 -0.887505 -3.36196
upperback -5.66956 -1.8647 -0.383981
thorax -11.1868 -0.717728 1.83479
lowerneck -3.21162 -3.83902 -5.80794
upperneck 4.60141 -5.60119 9.97054
head 2.33113 -2.72829 3.76085
rclavicle -1.94312e-014 -2.38542e-014
rhumerus -43.8565 24.9976 -103.69
rradius 37.2144
rwrist 15.3547
rhand -0.485861 -52.7724
rfingers 7.12502
rthumb 25.1249 -81.1392
lclavicle -1.94312e-014 -2.38542e-014
lhumerus -45.9114 -7.4619 91.9549
lradius 36.4862
lwrist -19.7986
lhand -2.67435 -35.8138
lfingers 7.12502
lthumb 23.0265 -7.16935
rfemur -9.78069 9.38786 23.2219
rtibia 30.6843
rfoot -24.1121 -25.6685
rtoes 5.34235
lfemur -12.4919 -17.9661 -22.1245
ltibia 30.6026
lfoot -22.6045 15.6853
ltoes -37.5157
144
root 9.13342 15.1184 42.5079 180.661 -6.04981 179.458
lowerback 9.18967 -0.998607 -3.53892
upperback -5.6562 -2.0434 -0.410789
thorax -11.1777 -0.791398 1.93856
lowerneck -3.19269 -3.82719 -5.86785
upperneck 4.68641 -5.60565 10.1026
head 2.35877 -2.73056 3.81034
rclavicle -1.65488e-014 -1.90833e-014
rhumerus -43.8629 24.747 -103.619
rradius 37.2075
rwrist 15.272
rhand -0.231263 -53.5735
rfingers 7.12502
rthumb 25.3688 -81.9059
lclavicle -1.65488e-014 -1.90833e-014
lhumerus -46.0476 -7.72657 92.1957
lradius 36.511
lwrist -20.3267
lhand -4.43582 -36.3759
lfingers 7.12502
lthumb 21.3354 -7.5304
rfemur -9.69721 9.35484 23.1214
rtibia 30.7379
rfoot -24.3019 -25.7996
rtoes 5.394
lfemur -12.3917 -18.0392 -22.2649
ltibia 30.5205
lfoot -22.5243 15.5562
ltoes -37.7834
145
root 9.1309 15.116 42.51 180.638 -5.66554 179.423
lowerback 9.22089 -0.880864 -3.64798
upperback -5.63678 -1.90203 -0.429017
thorax -11.181 -0.716011 1.95474
lowerneck -3.29807 -3.83853 -5.92111
upperneck 4.80117 -5.6425 10.2671
head 2.4193 -2.74446 3.86457
rclavicle 1.23743e-014 -1.98785e-015
rhumerus -43.7806 24.4549 -103.471
rradius 37.2317
rwrist 15.2367
rhand 0.396214 -54.476
rfingers 7.12502
rthumb 25.9698 -82.7217
lclavicle 1.23743e-014 -1.98785e-015
lhumerus -45.9239 -7.7563 92.2699
lradius 36.6331
lwrist -19.9448
lhand -3.33004 -35.881
lfingers 7.12502
lthumb 22.3972 -7.15944
rfemur -9.76682 9.39171 23.0252
rtibia 30.7588
rfoot -24.1131 -25.5712
rtoes 4.10825
lfemur -12.3094 -17.9024 -22.3515
ltibia 30.5123
lfoot -22.6289 15.7502
ltoes -37.4091
146
root 9.13124 15.1168 42.5034 180.665 -6.00215 179.439
lowerback 9.06834 -1.00568 -3.68155
upperback -5.59393 -2.06461 -0.422284
thorax -11.0296 -0.794861 2.00512
lowerneck -3.25949 -3.84208 -5.98727
upperneck 4.72834 -5.64846 10.3709
head 2.39667 -2.74923 3.90803
rclavicle 1.13804e-014 4.37326e-015
rhumerus -43.7679 24.2382 -103.343
rradius 37.2287
rwrist 15.1829
rhand 0.379499 -54.779
rfingers 7.12502
rthumb 25.9538 -83.0271
lclavicle 1.13804e-014 4.37326e-015
lhumerus -45.7671 -7.89784 92.4741
lradius 36.3469
lwrist -20.4999
lhand -4.12512 -35.4881
lfingers 7.12502
lthumb 21.6338 -6.67663
rfemur -9.6815 9.21801 23.0796
rtibia 30.7379
rfoot -24.2675 -25.7205
rtoes 3.9509
lfemur -12.3602 -18.0249 -22.3116
ltibia 30.5464
lfoot -22.5871 15.7102
ltoes -37.6246
147
root 9.12788 15.1113 42.5055 180.409 -5.88497 179.566
lowerback 9.33703 -0.991565 -3.59276
upperback -5.52305 -2.02915 -0.382743
thorax -11.1145 -0.776882 1.99779
lowerneck -3.0773 -3.84114 -5.98234
upperneck 4.51509 -5.62766 10.3061
head 2.29979 -2.74669 3.89356
rclavicle -1.0138e-014 1.31198e-014
rhumerus -43.8166 24.0627 -103.239
rradius 37.2191
rwrist 15.1763
rhand 0.555844 -55.7698
rfingers 7.12502
rthumb 26.1227 -83.9929
lclavicle -1.0138e-014 1.31198e-014
lhumerus -45.3527 -7.73335 92.4289
lradius 35.8713
lwrist -20.5104
lhand -3.67819 -35.9697
lfingers 7.12502
lthumb 22.063 -7.20835
rfemur -9.43947 9.18775 23.2334
rtibia 30.7344
rfoot -24.18 -25.6558
rtoes 4.32816
lfemur -12.1279 -17.7963 -22.274
ltibia 30.5997
lfoot -22.5645 15.7167
ltoes -38.8212
148
root 9.12765 15.1138 42.5043 180.54 -5.83853 179.661
lowerback 9.15928 -0.964544 -3.56797
upperback -5.52253 -1.9836 -0.385084
thorax -11.0101 -0.760698 1.96787
lowerneck -2.88175 -3.88427 -5.82857
upperneck 4.17244 -5.6676 10.2451
head 2.16375 -2.77569 3.85464
rclavicle -2.83268e-014 -1.43125e-014
rhumerus -43.7325 23.7597 -103.113
rradius 37.2162
rwrist 15.038
rhand 0.913422 -56.5811
rfingers 7.12502
rthumb 26.465 -84.7532
lclavicle -2.83268e-014 -1.43125e-014
lhumerus -45.4579 -8.53156 92.776
lradius 36.3043
lwrist -19.7383
lhand -3.26101 -36.241
lfingers 7.12502
lthumb 22.4634 -7.5274
rfemur -9.58555 9.19603 23.3068
rtibia 30.7057
rfoot -24.1781 -25.533
rtoes 5.10843
lfemur -12.3088 -17.6087 -22.1125
ltibia 30.6243
lfoot -22.5958 15.514
ltoes -39.2519
149
root 9.12756 15.1115 42.5042 180.465 -5.88383 179.594
lowerback 9.22162 -0.908851 -3.6908
upperback -5.44876 -1.93177 -0.474362
thorax -10.9679 -0.730971 1.93141
lowerneck -2.77843 -3.97306 -5.70544
upperneck 3.77485 -5.76134 9.984
head 2.24644 -2.85311 4.1704
rclavicle 1.635e-014 1.98785e-015
rhumerus -43.6318 23.3688 -102.975
rradius 37.1992
rwrist 14.8799
rhand 0.46733 -55.6535
rfingers 7.12502
rthumb 26.0379 -83.8891
lclavicle 1.635e-014 1.98785e-015
lhumerus -45.3006 -9.11281 92.9749
lradius 36.1238
lwrist -19.8859
lhand -3.79933 -36.1234
lfingers 7.12502
lthumb 21.9467 -7.34829
rfemur -9.48186 9.16289 23.2487
rtibia 30.7052
rfoot -24.2708 -25.4877
rtoes 5.41115
lfemur -12.1946 -17.8114 -22.2262
ltibia 30.6358
lfoot -22.7406 15.5234
ltoes -38.2934
150
root 9.12693 15.1119 42.5017 180.514 -5.99058 179.497
lowerback 9.15347 -0.920746 -3.8197
upperback -5.42156 -1.96657 -0.516732
thorax -10.8927 -0.742476 1.96201
lowerneck -2.71621 -4.03135 -5.7077
upperneck 3.67833 -5.83363 9.98296
head 2.2092 -2.89161 4.16831
rclavicle 7.50412e-015 2.78299e-015
rhumerus -43.5972 23.101 -102.843
rradius 37.1214
rwrist 14.7917
rhand -0.87106 -53.2742
rfingers 7.12502
rthumb 24.7558 -81.6922
lclavicle 7.50412e-015 2.78299e-015
lhumerus -45.1738 -9.43469 93.1866
lradius 35.9914
lwrist -19.9504
lhand -4.00422 -35.4742
lfingers 7.12502
lthumb 21.7499 -6.67614
rfemur -9.50088 9.14958 23.1463
rtibia 30.7122
rfoot -24.2579 -25.6414
rtoes 5.38787
lfemur -12.2119 -17.9554 -22.325
ltibia 30.6058
lfoot -22.8012 15.4594
ltoes -37.2722
151
root 9.12364 15.1134 42.4999 180.526 -5.80466 179.491
lowerback 9.07404 -0.887711 -3.84536
upperback -5.37181 -1.91566 -0.499728
thorax -10.7908 -0.717403 1.98243
lowerneck -2.57955 -4.02697 -5.92481
upperneck 3.46098 -5.80872 10.0948
head 2.123 -2.88526 4.25466
rclavicle 3.27995e-015 8.74653e-015
rhumerus -43.5242 22.9832 -102.721
rradius 36.946
rwrist 14.678
rhand -0.0311323 -54.5626
rfingers 7.12502
rthumb 25.5606 -82.8677
lclavicle 3.27995e-015 8.74653e-015
lhumerus -44.9822 -9.39519 93.2513
lradius 36.0528
lwrist -19.8009
lhand -3.27428 -35.3351
lfingers 7.12502
lthumb 22.4507 -6.62001
rfemur -9.53132 9.25015 23.1121
rtibia 30.7162
rfoot -24.2799 -25.5739
rtoes 5.36536
lfemur -12.1834 -17.8268 -22.3531
ltibia 30.5859
lfoot -22.7455 15.5537
ltoes -37.9541
152
root 9.12154 15.1149 42.4994 180.551 -5.71219 179.562
lowerback 8.92707 -0.865925 -3.7871
upperback -5.28743 -1.86381 -0.497767
thorax -10.612 -0.700249 1.93706
lowerneck -2.37963 -4.04604 -6.10707
upperneck 3.06525 -5.81746 10.3196
head 1.9725 -2.8997 4.37508
rclavicle 2.09718e-014 -3.57812e-015
rhumerus -43.4236 22.9237 -102.634
rradius 36.8051
rwrist 14.4754
rhand -0.741661 -53.6494
rfingers 7.12502
rthumb 24.8798 -82.0503
lclavicle 2.09718e-014 -3.57812e-015
lhumerus -44.7151 -9.31106 93.1924
lradius 36.175
lwrist -19.6756
lhand -2.67244 -35.7691
lfingers 7.12502
lthumb 23.0283 -7.12488
rfemur -9.56713 9.28831 23.1657
rtibia 30.6808
rfoot -24.2063 -25.5121
rtoes 4.92255
lfemur -12.2152 -17.7594 -22.2794
ltibia 30.6064
lfoot -22.6781 15.6743
ltoes -38.7132
153
root 9.12159 15.1135 42.5012 180.495 -5.73119 179.637
lowerback 8.91874 -0.863971 -3.74784
upperback -5.20031 -1.84592 -0.492861
thorax -10.5111 -0.695021 1.91526
lowerneck -2.17907 -4.10432 -6.08623
upperneck 2.70703 -5.87647 10.3432
head 1.82245 -2.93788 4.38087
rclavicle -1.11319e-014 2.8625e-014
rhumerus -43.3811 22.951 -102.603
rradius 36.7349
rwrist 14.3473
rhand -1.37292 -52.8789
rfingers 7.12502
rthumb 24.2747 -81.3621
lclavicle -1.11319e-014 2.8625e-014
lhumerus -44.4743 -9.2684 93.1612
lradius 36.3206
lwrist -19.3171
lhand -1.9265 -35.9294
lfingers 7.12502
lthumb 23.7439 -7.37621
rfemur -9.51826 9.31024 23.2604
rtibia 30.6398
rfoot -23.985 -25.6476
rtoes 3.75341
lfemur -12.2266 -17.4242 -22.1934
ltibia 30.6589
lfoot -22.6024 15.4671
ltoes -39.5657
